# xmcd
#
# Track frame offsets: 
#        150
#        17270
#        33692
#        56755
#
# Disc length: 1045 seconds
#
# Revision: 0
# Processed by: cddbd v1.5.1PL0 Copyright (c) Steve Scherf et al.
# Submitted via: ExactAudioCopy v0.95a5
#
DISCID=2a041304
DTITLE=Digital Underground - Oregano Flow [CD Single)
DYEAR=1996
DGENRE=Rap
TTITLE0=Gumbo Soup Mix
TTITLE1=Instrumental Mix
TTITLE2=Duck Season (Vocal)
TTITLE3=Duck Season (Instrumental)
EXTD=
EXTT0=
EXTT1=
EXTT2=
EXTT3=
PLAYORDER=
